<svg xmlns="http://www.w3.org/2000/svg" width="85.479" height="92" viewBox="0 0 85.479 92">
  <g id="Group_14030" data-name="Group 14030" transform="translate(3306.774 -1025.5) rotate(90)">
    <g id="Path_22608" data-name="Path 22608" transform="translate(1116.5 3222.295) rotate(90)" fill="none">
      <path d="M1.786,10.154c13.389,13.2,21.842,22.235,35.908,35.431h0C24.633,58.42,15.908,67.011,2.885,79.846c-5.5,5.424,2.96,13.825,8.462,8.4Q30.883,69,50.385,49.743a5.937,5.937,0,0,0-.016-8.4Q30.284,21.547,10.254,1.752c-5.5-5.423-13.972,2.979-8.469,8.4Z" stroke="none"/>
      <path d="M 6.236030578613281 0 C 1.620693206787109 -0.00025177001953125 -2.464725494384766 5.965362548828125 1.785686492919922 10.15449523925781 C 15.17462158203125 23.35040283203125 23.62792778015137 32.38944244384766 37.69404602050781 45.58536529541016 C 37.69404602050781 45.18097686767578 37.69404602050781 44.77656173706055 37.69404602050781 44.77656173706055 C 37.69404602050781 44.77656173706055 37.69404602050781 44.99341583251953 37.69404602050781 45.58536529541016 C 37.69404602050781 45.98958206176758 37.69404602050781 46.39365386962891 37.69404602050781 46.39365386962891 C 37.69404602050781 46.39365386962891 37.69404602050781 46.17709350585938 37.69404602050781 45.58536529541016 C 24.63265991210938 58.41983032226562 15.90807342529297 67.01101684570312 2.884860992431641 79.84549713134766 C -2.618011474609375 85.26903533935547 5.844779968261719 93.67021942138672 11.34661865234375 88.2476806640625 C 24.37084770202637 75.41317749023438 37.36191558837891 62.57771301269531 50.38511276245117 49.74324417114258 C 52.70804595947266 47.45380401611328 52.69095230102539 43.62950897216797 50.36904907226562 41.34107208251953 C 36.9791145324707 28.14514923095703 23.64443397521973 14.9482421875 10.25450134277344 1.752326965332031 C 9.002273559570312 0.5181503295898438 7.596015930175781 7.62939453125e-05 6.236030578613281 0 M 6.235740661621094 -0.9999923706054688 L 6.235740661621094 7.62939453125e-06 L 6.235805511474609 -0.9999923706054688 C 7.970100402832031 -0.9999160766601562 9.602378845214844 -0.294464111328125 10.95645904541016 1.04010009765625 C 17.65176773071289 7.638404846191406 24.4449405670166 14.34724426269531 31.01444625854492 20.83518981933594 C 37.58359527587891 27.32277679443359 44.37638092041016 34.03123092651367 51.07098007202148 40.62881851196289 C 52.39162063598633 41.9304313659668 53.11891174316406 43.6810302734375 53.11891174316406 45.55816268920898 C 53.11891174316406 47.42486953735352 52.3973274230957 49.16409683227539 51.08707427978516 50.45547103881836 C 44.67110061645508 56.7784423828125 38.15559387207031 63.20760345458984 31.85460662841797 69.42507171630859 C 25.36591339111328 75.82775115966797 18.65631294250488 82.44841766357422 12.04851531982422 88.9599609375 C 10.69441986083984 90.29454803466797 9.062446594238281 91 7.329086303710938 91 C 4.496341705322266 91 1.729606628417969 89.07716369628906 0.6008987426757812 86.32400512695312 C 0.1181678771972656 85.146484375 -0.0196990966796875 83.89653778076172 0.2022323608398438 82.70927429199219 C 0.4491539001464844 81.38838958740234 1.11553955078125 80.18524169921875 2.182899475097656 79.13327026367188 C 14.76035308837891 66.73810577392578 23.56876182556152 58.06397247314453 36.25084686279297 45.60152435302734 C 27.50555229187012 37.3720817565918 20.86661720275879 30.68685913085938 13.8502197265625 23.62148284912109 C 9.890899658203125 19.63451385498047 5.796768188476562 15.51181793212891 1.083728790283203 10.86672210693359 C 0.01676559448242188 9.815139770507812 -0.6493644714355469 8.612472534179688 -0.8961677551269531 7.292137145996094 C -1.117992401123047 6.105361938476562 -0.9801673889160156 4.855827331542969 -0.4975509643554688 3.678642272949219 C 0.6317939758300781 0.9239273071289062 3.400619506835938 -0.9999923706054688 6.235740661621094 -0.9999923706054688 Z" stroke="none" fill="#fec82e"/>
    </g>
    <g id="Path_22609" data-name="Path 22609" transform="translate(1116.5 3253.655) rotate(90)" fill="none">
      <path d="M1.786,10.154c13.389,13.2,21.842,22.235,35.908,35.431h0C24.633,58.42,15.908,67.011,2.885,79.846c-5.5,5.424,2.96,13.825,8.462,8.4Q30.883,69,50.385,49.743a5.937,5.937,0,0,0-.016-8.4Q30.284,21.547,10.254,1.752c-5.5-5.423-13.972,2.979-8.469,8.4Z" stroke="none"/>
      <path d="M 6.236030578613281 0 C 1.620693206787109 -0.00025177001953125 -2.464725494384766 5.965362548828125 1.785686492919922 10.15449523925781 C 15.17462158203125 23.35040283203125 23.62792778015137 32.38944244384766 37.69404602050781 45.58536529541016 C 37.69404602050781 45.18097686767578 37.69404602050781 44.77656173706055 37.69404602050781 44.77656173706055 C 37.69404602050781 44.77656173706055 37.69404602050781 44.99341583251953 37.69404602050781 45.58536529541016 C 37.69404602050781 45.98958206176758 37.69404602050781 46.39365386962891 37.69404602050781 46.39365386962891 C 37.69404602050781 46.39365386962891 37.69404602050781 46.17709350585938 37.69404602050781 45.58536529541016 C 24.63265991210938 58.41983032226562 15.90807342529297 67.01101684570312 2.884860992431641 79.84549713134766 C -2.618011474609375 85.26903533935547 5.844779968261719 93.67021942138672 11.34661865234375 88.2476806640625 C 24.37084770202637 75.41317749023438 37.36191558837891 62.57771301269531 50.38511276245117 49.74324417114258 C 52.70804595947266 47.45380401611328 52.69095230102539 43.62950897216797 50.36904907226562 41.34107208251953 C 36.9791145324707 28.14514923095703 23.64443397521973 14.9482421875 10.25450134277344 1.752326965332031 C 9.002273559570312 0.5181503295898438 7.596015930175781 7.62939453125e-05 6.236030578613281 0 M 6.235740661621094 -0.9999923706054688 L 6.235740661621094 7.62939453125e-06 L 6.235805511474609 -0.9999923706054688 C 7.970100402832031 -0.9999160766601562 9.602378845214844 -0.294464111328125 10.95645904541016 1.04010009765625 C 17.65176773071289 7.638404846191406 24.4449405670166 14.34724426269531 31.01444625854492 20.83518981933594 C 37.58359527587891 27.32277679443359 44.37638092041016 34.03123092651367 51.07098007202148 40.62881851196289 C 52.39162063598633 41.9304313659668 53.11891174316406 43.6810302734375 53.11891174316406 45.55816268920898 C 53.11891174316406 47.42486953735352 52.3973274230957 49.16409683227539 51.08707427978516 50.45547103881836 C 44.67110061645508 56.7784423828125 38.15559387207031 63.20760345458984 31.85460662841797 69.42507171630859 C 25.36591339111328 75.82775115966797 18.65631294250488 82.44841766357422 12.04851531982422 88.9599609375 C 10.69441986083984 90.29454803466797 9.062446594238281 91 7.329086303710938 91 C 4.496341705322266 91 1.729606628417969 89.07716369628906 0.6008987426757812 86.32400512695312 C 0.1181678771972656 85.146484375 -0.0196990966796875 83.89653778076172 0.2022323608398438 82.70927429199219 C 0.4491539001464844 81.38838958740234 1.11553955078125 80.18524169921875 2.182899475097656 79.13327026367188 C 14.76035308837891 66.73810577392578 23.56876182556152 58.06397247314453 36.25084686279297 45.60152435302734 C 27.50555229187012 37.3720817565918 20.86661720275879 30.68685913085938 13.8502197265625 23.62148284912109 C 9.890899658203125 19.63451385498047 5.796768188476562 15.51181793212891 1.083728790283203 10.86672210693359 C 0.01676559448242188 9.815139770507812 -0.6493644714355469 8.612472534179688 -0.8961677551269531 7.292137145996094 C -1.117992401123047 6.105361938476562 -0.9801673889160156 4.855827331542969 -0.4975509643554688 3.678642272949219 C 0.6317939758300781 0.9239273071289062 3.400619506835938 -0.9999923706054688 6.235740661621094 -0.9999923706054688 Z" stroke="none" fill="#fec82e"/>
    </g>
  </g>
</svg>
