<svg xmlns="http://www.w3.org/2000/svg" width="92" height="85.478" viewBox="0 0 92 85.478">
  <g id="Group_15741" data-name="Group 15741" transform="translate(-596.746 -2829.353)">
    <g id="Path_22613" data-name="Path 22613" transform="translate(687.746 2830.353) rotate(90)" fill="none">
      <path d="M1.786,10.154c13.389,13.2,21.842,22.235,35.908,35.431h0C24.632,58.42,15.908,67.011,2.885,79.845c-5.5,5.424,2.96,13.825,8.462,8.4Q30.883,69,50.385,49.743a5.937,5.937,0,0,0-.016-8.4Q30.284,21.547,10.254,1.752c-5.5-5.423-13.972,2.979-8.469,8.4Z" stroke="none"/>
      <path d="M 6.2359619140625 0 C 1.620677947998047 -0.00025177001953125 -2.464694976806641 5.965354919433594 1.785667419433594 10.15449523925781 C 15.17445373535156 23.35040283203125 23.6276798248291 32.38943099975586 37.69363784790039 45.58535385131836 C 37.69363784790039 45.18096542358398 37.69363784790039 44.77655029296875 37.69363784790039 44.77655029296875 C 37.69363784790039 44.77655029296875 37.69363784790039 44.99340438842773 37.69363784790039 45.58535385131836 C 37.69363784790039 45.98957061767578 37.69363784790039 46.39364242553711 37.69363784790039 46.39364242553711 C 37.69363784790039 46.39364242553711 37.69363784790039 46.17708206176758 37.69363784790039 45.58535385131836 C 24.63239860534668 58.41981887817383 15.90789413452148 67.01100158691406 2.88482666015625 79.84548950195312 C -2.617988586425781 85.26900482177734 5.844703674316406 93.67020416259766 11.34650421142578 88.24765777587891 C 24.37058639526367 75.41316223144531 37.36151885986328 62.57769775390625 50.38457107543945 49.74323272705078 C 52.70747756958008 47.45379257202148 52.69039916992188 43.62949752807617 50.36850738525391 41.34106063842773 C 36.97871780395508 28.14513778686523 23.64418601989746 14.94823455810547 10.25438690185547 1.752326965332031 C 9.002174377441406 0.5181503295898438 7.595928192138672 7.62939453125e-05 6.2359619140625 0 M 6.235664367675781 -0.9999923706054688 L 6.235664367675781 7.62939453125e-06 L 6.235733032226562 -0.9999923706054688 C 7.970012664794922 -0.9999160766601562 9.602279663085938 -0.2944488525390625 10.95634460449219 1.040115356445312 C 17.65318489074707 7.639976501464844 24.44790649414062 14.35040283203125 31.01890563964844 20.83989715576172 C 37.58641052246094 27.3259391784668 44.37751770019531 34.03279113769531 51.07043838500977 40.62881851196289 C 52.39106750488281 41.930419921875 53.11835861206055 43.68100738525391 53.11835861206055 45.55812454223633 C 53.11835861206055 47.42484664916992 52.39677429199219 49.16408538818359 51.08653259277344 50.4554443359375 C 44.67197418212891 56.77712631225586 38.15786743164062 63.20494079589844 31.85825157165527 69.42112731933594 C 25.36833190917969 75.82509613037109 18.6574649810791 82.44708251953125 12.04841232299805 88.95992279052734 C 10.69432067871094 90.29452514648438 9.062358856201172 90.99997711181641 7.329013824462891 90.99997711181641 C 4.496307373046875 90.99997711181641 1.729598999023438 89.07715606689453 0.60089111328125 86.32400512695312 C 0.1181602478027344 85.146484375 -0.01970672607421875 83.89653778076172 0.2022132873535156 82.70928955078125 C 0.4491195678710938 81.38838958740234 1.115505218505859 80.18524169921875 2.182865142822266 79.13327026367188 C 14.75613403320312 66.74207305908203 23.56360054016113 58.06879043579102 36.25045013427734 45.60151290893555 C 27.50520515441895 37.37203216552734 20.8663158416748 30.6867790222168 13.84996032714844 23.62137603759766 C 9.890705108642578 19.63444519042969 5.796653747558594 15.51176452636719 1.083705902099609 10.86671447753906 C 0.01674652099609375 9.81512451171875 -0.6493873596191406 8.612442016601562 -0.8961753845214844 7.2921142578125 C -1.118000030517578 6.105316162109375 -0.9801483154296875 4.855781555175781 -0.4975357055664062 3.6785888671875 C 0.6317977905273438 0.9239120483398438 3.400600433349609 -0.9999923706054688 6.235664367675781 -0.9999923706054688 Z" stroke="none" fill="#fec82e"/>
    </g>
    <g id="Path_22612" data-name="Path 22612" transform="translate(687.746 2861.713) rotate(90)" fill="none">
      <path d="M1.786,10.154c13.389,13.2,21.842,22.235,35.908,35.431h0C24.632,58.42,15.908,67.011,2.885,79.845c-5.5,5.424,2.96,13.825,8.462,8.4Q30.883,69,50.385,49.743a5.937,5.937,0,0,0-.016-8.4Q30.284,21.547,10.254,1.752c-5.5-5.423-13.972,2.979-8.469,8.4Z" stroke="none"/>
      <path d="M 6.2359619140625 0 C 1.620677947998047 -0.00025177001953125 -2.464694976806641 5.965354919433594 1.785667419433594 10.15449523925781 C 15.17445373535156 23.35040283203125 23.6276798248291 32.38943099975586 37.69363784790039 45.58535385131836 C 37.69363784790039 45.18096542358398 37.69363784790039 44.77655029296875 37.69363784790039 44.77655029296875 C 37.69363784790039 44.77655029296875 37.69363784790039 44.99340438842773 37.69363784790039 45.58535385131836 C 37.69363784790039 45.98957061767578 37.69363784790039 46.39364242553711 37.69363784790039 46.39364242553711 C 37.69363784790039 46.39364242553711 37.69363784790039 46.17708206176758 37.69363784790039 45.58535385131836 C 24.63239860534668 58.41981887817383 15.90789413452148 67.01100158691406 2.88482666015625 79.84548950195312 C -2.617988586425781 85.26900482177734 5.844703674316406 93.67020416259766 11.34650421142578 88.24765777587891 C 24.37058639526367 75.41316223144531 37.36151885986328 62.57769775390625 50.38457107543945 49.74323272705078 C 52.70747756958008 47.45379257202148 52.69039916992188 43.62949752807617 50.36850738525391 41.34106063842773 C 36.97871780395508 28.14513778686523 23.64418601989746 14.94823455810547 10.25438690185547 1.752326965332031 C 9.002174377441406 0.5181503295898438 7.595928192138672 7.62939453125e-05 6.2359619140625 0 M 6.235664367675781 -0.9999923706054688 L 6.235664367675781 7.62939453125e-06 L 6.235733032226562 -0.9999923706054688 C 7.970012664794922 -0.9999160766601562 9.602279663085938 -0.2944488525390625 10.95634460449219 1.040115356445312 C 17.65318489074707 7.639976501464844 24.44790649414062 14.35040283203125 31.01890563964844 20.83989715576172 C 37.58641052246094 27.3259391784668 44.37751770019531 34.03279113769531 51.07043838500977 40.62881851196289 C 52.39106750488281 41.930419921875 53.11835861206055 43.68100738525391 53.11835861206055 45.55812454223633 C 53.11835861206055 47.42484664916992 52.39677429199219 49.16408538818359 51.08653259277344 50.4554443359375 C 44.67197418212891 56.77712631225586 38.15786743164062 63.20494079589844 31.85825157165527 69.42112731933594 C 25.36833190917969 75.82509613037109 18.6574649810791 82.44708251953125 12.04841232299805 88.95992279052734 C 10.69432067871094 90.29452514648438 9.062358856201172 90.99997711181641 7.329013824462891 90.99997711181641 C 4.496307373046875 90.99997711181641 1.729598999023438 89.07715606689453 0.60089111328125 86.32400512695312 C 0.1181602478027344 85.146484375 -0.01970672607421875 83.89653778076172 0.2022132873535156 82.70928955078125 C 0.4491195678710938 81.38838958740234 1.115505218505859 80.18524169921875 2.182865142822266 79.13327026367188 C 14.75613403320312 66.74207305908203 23.56360054016113 58.06879043579102 36.25045013427734 45.60151290893555 C 27.50520515441895 37.37203216552734 20.8663158416748 30.6867790222168 13.84996032714844 23.62137603759766 C 9.890705108642578 19.63444519042969 5.796653747558594 15.51176452636719 1.083705902099609 10.86671447753906 C 0.01674652099609375 9.81512451171875 -0.6493873596191406 8.612442016601562 -0.8961753845214844 7.2921142578125 C -1.118000030517578 6.105316162109375 -0.9801483154296875 4.855781555175781 -0.4975357055664062 3.6785888671875 C 0.6317977905273438 0.9239120483398438 3.400600433349609 -0.9999923706054688 6.235664367675781 -0.9999923706054688 Z" stroke="none" fill="#fec82e"/>
    </g>
  </g>
</svg>
