<svg id="btn-twi__rounded" xmlns="http://www.w3.org/2000/svg" width="20.738" height="20.738" viewBox="0 0 20.738 20.738">
  <path id="instagram" d="M5.723,20.738A5.73,5.73,0,0,1,0,15.015V5.723A5.73,5.73,0,0,1,5.723,0h9.292a5.729,5.729,0,0,1,5.723,5.723v9.292a5.729,5.729,0,0,1-5.723,5.723ZM1.84,5.723v9.292A3.886,3.886,0,0,0,5.723,18.9h9.292A3.887,3.887,0,0,0,18.9,15.015V5.723A3.887,3.887,0,0,0,15.015,1.84H5.723A3.887,3.887,0,0,0,1.84,5.723Zm3.185,4.646a5.344,5.344,0,1,1,5.344,5.343A5.35,5.35,0,0,1,5.025,10.369Zm1.84,0a3.5,3.5,0,1,0,3.5-3.5A3.508,3.508,0,0,0,6.865,10.369Zm8.119-4.6a1.348,1.348,0,1,1,.953.4A1.358,1.358,0,0,1,14.984,5.769Z" transform="translate(0)"/>
</svg>
