<svg xmlns="http://www.w3.org/2000/svg" xmlns:xlink="http://www.w3.org/1999/xlink" width="100.002" height="50" viewBox="0 0 100.002 50">
  <defs>
    <linearGradient id="linear-gradient" x1="0.827" y1="0.089" x2="0.424" y2="0.609" gradientUnits="objectBoundingBox">
      <stop offset="0" stop-color="#ffb900"/>
      <stop offset="1" stop-color="#780e2f"/>
    </linearGradient>
  </defs>
  <g id="Color_Logo" data-name="Color Logo" transform="translate(0.004)">
    <rect id="Container" width="100" height="50" transform="translate(-0.002)" fill="#fff" opacity="0"/>
    <path id="Union_52" data-name="Union 52" d="M47.513,42.343v-.448c.454-.125.618-.233.618-.737V30.553c0-.5-.15-.648-.618-.737v-.444h6.931c5.827,0,7.6,3.312,7.6,6.447,0,3.173-1.66,6.523-7.776,6.523ZM51,40.172h3.375c3.461,0,4.707-1.9,4.707-4.352,0-2.976-1.749-4.337-4.707-4.337H51Zm-8.5,2.171v-.448c.538-.11.77-.433.482-1.021l-.558-1.433H35.48l-.523,1.433c-.289.588-.111.911.428,1.021v.448h-4.47v-.448a2.052,2.052,0,0,0,1.246-1.274l4.11-9.82c.18-.394.219-.787-.523-.985v-.444h6.411v.444c-.8.2-.707.632-.523,1.025l4.091,9.78c.276.537.577,1.109,1.246,1.274v.448Zm-6.265-4.874h5.434l-2.311-5.876h-.831ZM16.6,42.343v-.448c.456-.125.618-.233.618-.737V30.553c0-.5-.145-.648-.618-.737v-.444h6.931c5.831,0,7.6,3.312,7.6,6.447,0,3.173-1.664,6.523-7.778,6.523Zm3.485-2.171h3.372c3.464,0,4.709-1.9,4.709-4.352,0-2.976-1.747-4.337-4.709-4.337H20.087Zm-8.5,2.171v-.448c.538-.11.777-.433.488-1.021l-.558-1.433H4.568l-.523,1.433c-.291.588-.109.911.434,1.021v.448H0v-.448a2.031,2.031,0,0,0,1.246-1.274L5.365,30.8c.178-.394.213-.787-.523-.985v-.444h6.4v.444c-.79.2-.7.632-.523,1.025l4.1,9.78c.269.537.573,1.109,1.246,1.274v.448ZM5.326,37.469h5.432L8.446,31.593H7.619ZM52.895,23.442a2.126,2.126,0,0,0-2.174-.035,5.1,5.1,0,0,1-5.543-.248c-.428-.3-.7-.14-1.12.014-3.424,1.265-6.823,1.823-9.909-.837-.384-.333-.623-.214-.961,0-2.339,1.469-4.954,1.718-7.639,1.743-1.178.015-1.239-.692-1.213-1.539.024-.816-.161-1.758,1.178-1.708a15.1,15.1,0,0,0,4.277-.483c2.511-.642,3.2-1.808,2.52-4.307A25.128,25.128,0,0,0,30.269,11.5c-.286-.582-1.313-1.279-.373-1.941a2.844,2.844,0,0,1,3.312.812,32.949,32.949,0,0,1,2.387,6.343c.089.363.169.722.263,1.081.757,2.878,2.619,3.849,5.486,2.893a2.266,2.266,0,0,0,1.5-1.683,8.767,8.767,0,0,0,.174-2.893c-.039-1.1.189-1.687,1.515-1.7s1.712.508,1.658,1.712a17.01,17.01,0,0,0,.124,2.9,1.779,1.779,0,0,0,1.8,1.773,1.88,1.88,0,0,0,1.94-1.643,12.276,12.276,0,0,0,.23-3.446c-.041-1.11.577-1.274,1.5-1.27s1.695.025,1.651,1.26a21.134,21.134,0,0,0,.061,2.489c.148,1.7,1,2.58,2.478,2.629,1.5.05,2.415-.726,2.6-2.474a33.1,33.1,0,0,0,.085-4.427c-.03-1.106.432-1.443,1.5-1.424.992.021,1.782.079,1.686,1.368-.043.643-.009,1.3,0,1.938a18.978,18.978,0,0,1-.178,3.177c-.543,3.294-2.793,5.26-5.584,5.26A7.2,7.2,0,0,1,52.895,23.442Zm-34.863-.977c.054-3.506.02-7.016.02-10.526,0-3.46.035-6.926-.015-10.386C18.023.433,18.379.014,19.549,0c1.2-.011,1.669.353,1.66,1.568q-.046,10.464,0,20.918c0,1.164-.362,1.622-1.608,1.622C18.336,24.108,18.016,23.631,18.032,22.466ZM4.414,24.029c-1.237-.064-.768-1.16-.831-1.852-.061-.667.009-1.3.966-1.344,1.2-.05,2.409-.125,3.6-.294,3.607-.5,4.5-2.439,2.572-5.482A67.782,67.782,0,0,0,6.534,9.65c2.24-.463,3.928-.279,5.1,1.742.781,1.35,1.8,2.565,2.528,3.964A4.976,4.976,0,0,1,12.65,22.1a11.568,11.568,0,0,1-7,1.966C5.241,24.064,4.829,24.051,4.414,24.029Z" transform="translate(37.445 0.001)" fill="#780e2f"/>
    <path id="Path_22875" data-name="Path 22875" d="M226.14,1492.127a14.042,14.042,0,0,0-1.783-3.4,11.386,11.386,0,0,0-2.845-2.62,29.008,29.008,0,0,0-3.256-1.939,24.4,24.4,0,0,0-3.667-1.395q-2.228-.681-3.427-.987c-.544-.138-1.211-.294-2-.465l-.106,3.605L198,1478.149l11.443-6.126-.125,4.255a30.779,30.779,0,0,1,5.755.911,18.58,18.58,0,0,1,5.724,2.245l4.387-10a33.433,33.433,0,0,0-17.2-4.492,21.891,21.891,0,0,0-12.475,3.4,11.212,11.212,0,0,0-5.073,9.936,12.837,12.837,0,0,0,1.028,5.206,11.785,11.785,0,0,0,2.639,3.879,16.751,16.751,0,0,0,4.044,2.757,29.884,29.884,0,0,0,4.661,1.905q1.765.54,3.984,1.078l.19-3.1,10.842,7.119-11.63,5.764.23-3.752a26.751,26.751,0,0,1-4.677-.641,25.187,25.187,0,0,1-4.455-1.361q-1.508-.681-3.77-1.974l-4.25,10.072q.137.068,1.748,1.055a34.713,34.713,0,0,0,3.427,1.838,26.914,26.914,0,0,0,5.518,1.633,38.718,38.718,0,0,0,8.02.784,28.76,28.76,0,0,0,9.014-1.361,15.63,15.63,0,0,0,7.026-4.662,11.839,11.839,0,0,0,2.879-8.064A12.2,12.2,0,0,0,226.14,1492.127Z" transform="translate(-189.266 -1461.502)" fill="url(#linear-gradient)"/>
  </g>
</svg>
