<svg id="btn-twi__rounded" xmlns="http://www.w3.org/2000/svg" width="21.114" height="17.151" viewBox="0 0 21.114 17.151">
  <path id="twitter" d="M21.115,59.47a8.65,8.65,0,0,1-2.487.682,4.349,4.349,0,0,0,1.9-2.395,8.732,8.732,0,0,1-2.752,1.052A4.335,4.335,0,0,0,10.4,62.758a12.3,12.3,0,0,1-8.927-4.526,4.336,4.336,0,0,0,1.341,5.782,4.332,4.332,0,0,1-1.962-.544v.054a4.336,4.336,0,0,0,3.474,4.247,4.387,4.387,0,0,1-1.141.152,4.158,4.158,0,0,1-.815-.08,4.334,4.334,0,0,0,4.045,3.008A8.69,8.69,0,0,1,1.034,72.7,9.2,9.2,0,0,1,0,72.643,12.243,12.243,0,0,0,6.64,74.592,12.238,12.238,0,0,0,18.963,62.269l-.015-.561A8.65,8.65,0,0,0,21.115,59.47Z" transform="translate(-0.001 -57.441)"/>
</svg>
