<svg id="btn--yt__rounded" xmlns="http://www.w3.org/2000/svg" width="21.703" height="26.044" viewBox="0 0 21.703 26.044">
  <path id="YouTube" d="M25.858,19.05H24.428l.007-.83a.674.674,0,0,1,.673-.671H25.2a.675.675,0,0,1,.675.671ZM20.5,17.271a.611.611,0,0,0-.659.542v4.038a.673.673,0,0,0,1.32,0V17.813A.612.612,0,0,0,20.5,17.271ZM29.2,15.012v7.681a3.465,3.465,0,0,1-3.551,3.35h-14.6A3.465,3.465,0,0,1,7.5,22.694V15.012a3.465,3.465,0,0,1,3.551-3.35h14.6A3.465,3.465,0,0,1,29.2,15.012ZM12.025,23.528V15.436h1.81v-1.2l-4.825-.007v1.179l1.506,0v8.114Zm5.426-6.886H15.942v4.321a7.657,7.657,0,0,1,0,1.048c-.123.335-.674.691-.889.036a8.6,8.6,0,0,1,0-1.054l-.006-4.35h-1.5l0,4.282c0,.656-.015,1.146.005,1.368.037.393.024.85.388,1.112a1.823,1.823,0,0,0,2.306-.772l0,.892h1.212V16.642Zm4.828,4.948,0-3.6c0-1.37-1.026-2.191-2.418-1.082l.006-2.674-1.507,0-.007,9.228,1.24-.018.113-.575C21.285,24.328,22.281,23.333,22.278,21.589ZM27,21.113l-1.131.006c0,.045,0,.1,0,.153V21.9a.618.618,0,0,1-.618.613h-.222a.618.618,0,0,1-.619-.613V20.243H27v-.975a15.386,15.386,0,0,0-.077-1.833c-.185-1.289-1.995-1.493-2.908-.834a1.7,1.7,0,0,0-.633.852,4.8,4.8,0,0,0-.192,1.52v2.144C23.188,24.682,27.518,24.179,27,21.113ZM21.2,9.472a1.027,1.027,0,0,0,.363.458,1.051,1.051,0,0,0,.618.171.96.96,0,0,0,.578-.18,1.387,1.387,0,0,0,.423-.541l-.029.592h1.682V2.819H23.508V8.386a.551.551,0,0,1-1.1,0V2.819H21.023V7.644c0,.615.011,1.024.03,1.232A2.074,2.074,0,0,0,21.2,9.472Zm-5.1-4.04a5.953,5.953,0,0,1,.171-1.609,1.722,1.722,0,0,1,1.759-1.28,2.086,2.086,0,0,1,1,.226,1.668,1.668,0,0,1,.645.587,2.315,2.315,0,0,1,.311.745,5.941,5.941,0,0,1,.084,1.171V7.08a9.794,9.794,0,0,1-.078,1.462,2.317,2.317,0,0,1-.332.869,1.572,1.572,0,0,1-.647.595,2.066,2.066,0,0,1-.913.192,2.535,2.535,0,0,1-.973-.163,1.335,1.335,0,0,1-.62-.5,2.2,2.2,0,0,1-.316-.8,7.73,7.73,0,0,1-.093-1.41V5.432Zm1.318,2.842a.671.671,0,1,0,1.337,0V4.465a.671.671,0,1,0-1.337,0ZM12.761,10.2h1.587l0-5.487L16.225.01H14.49l-1,3.491L12.482,0H10.764l1.995,4.712Z" transform="translate(-7.5)"/>
</svg>
